<?xml version="1.0" encoding="utf-8"?>
<!-- Generator: Adobe Illustrator 26.3.1, SVG Export Plug-In . SVG Version: 6.00 Build 0)  -->
<svg version="1.1" id="Calque_1" xmlns="http://www.w3.org/2000/svg" xmlns:xlink="http://www.w3.org/1999/xlink" x="0px" y="0px"
	 viewBox="0 0 384 512" style="enable-background:new 0 0 384 512;" xml:space="preserve">
<style type="text/css">
	.st0{fill:#7B45E8;}
</style>
<g>
	<path class="st0" d="M292,328.1c3.4-1.3,6-3.4,7.9-6.2c1.9-2.8,2.9-6,2.9-9.8c0-4.6-1.3-8.3-4-11.3s-6.1-4.8-10.2-5.6
		c-3-0.6-9.1-0.9-18.2-0.9h-12.2v35.6H272C282,330.1,288.7,329.5,292,328.1z"/>
	<polygon class="st0" points="256,0 256,128 384,128 	"/>
	<path class="st0" d="M224,128V0H64C28.7,0,0,28.7,0,64v384c0,35.3,28.7,64,64,64h256c35.3,0,64-28.7,64-64V160H256
		C238.3,160,224,145.7,224,128z M189.4,398.8h-26.9l-25-93.8l-24.9,93.8H85.1l-30-125.5H81l18.9,86.2l22.9-86.2h30.1l22,87.7
		l19.3-87.7h25.5L189.4,398.8z M303.6,275.2c7.2,1.9,13.2,6,18.1,12.3c4.8,6.3,7.3,14.5,7.3,24.4c0,7.7-1.4,14.2-4.2,19.4
		c-2.8,5.2-6.3,9.4-10.7,12.4c-4.3,3-8.7,5-13.1,5.9c-6,1.2-14.8,1.8-26.3,1.8h-16.5v47.3h-25.3V273.3h40.7
		C288.9,273.3,298.9,273.9,303.6,275.2z"/>
</g>
</svg>
